<svg width="24" height="24" viewBox="0 0 24 24" fill="none" xmlns="http://www.w3.org/2000/svg">
<path d="M23.7017 20.8206L16.9824 14.1015C18.1881 12.1873 18.6461 9.89602 18.269 7.66545C17.8919 5.43488 16.7061 3.42149 14.9382 2.01005C13.1703 0.598614 10.9443 -0.111885 8.68561 0.0143402C6.42691 0.140565 4.29393 1.09466 2.6943 2.69429C1.09466 4.29392 0.140566 6.4269 0.0143402 8.6856C-0.111885 10.9443 0.598615 13.1703 2.01005 14.9382C3.42149 16.7061 5.43489 17.8919 7.66546 18.269C9.89603 18.6461 12.1873 18.1881 14.1015 16.9824L20.8208 23.7016C20.9154 23.7962 21.0277 23.8713 21.1512 23.9225C21.2748 23.9736 21.4073 24 21.5411 24C21.6748 24 21.8073 23.9736 21.9309 23.9225C22.0545 23.8713 22.1668 23.7962 22.2614 23.7016L23.7017 22.2611C23.8927 22.0701 24 21.811 24 21.5409C24 21.2707 23.8927 21.0116 23.7017 20.8206ZM9.23009 15.3418C8.0213 15.3418 6.83966 14.9834 5.83459 14.3118C4.82952 13.6402 4.04616 12.6857 3.58358 11.5689C3.12099 10.4522 2.99996 9.22329 3.23578 8.03773C3.47161 6.85218 4.05369 5.76317 4.90843 4.90843C5.76318 4.05369 6.85218 3.4716 8.03775 3.23578C9.22331 2.99996 10.4522 3.12099 11.5689 3.58357C12.6857 4.04615 13.6402 4.82951 14.3118 5.83458C14.9834 6.83965 15.3418 8.02129 15.3418 9.23007C15.3401 10.8505 14.6956 12.404 13.5498 13.5498C12.404 14.6956 10.8505 15.34 9.23009 15.3418Z" fill="#01B4E4"/>
</svg>
